<svg width="166" height="151" viewBox="0 0 166 151" fill="none" xmlns="http://www.w3.org/2000/svg">
<path d="M154.457 86.0206C159.196 82.6048 159.643 76.4001 158.945 71.0495C158.248 65.7167 156.585 60.5333 154.534 55.5767C154.039 54.3883 153.539 53.2 152.972 52.0415C152.674 52.77 152.376 53.5045 152.084 54.2331C153.998 53.7971 155.631 52.4416 156.919 51.0203C158.355 49.4318 159.559 47.6045 160.489 45.6696C161.27 44.0453 162.009 42.2478 162.063 40.4205C162.087 39.7158 161.956 38.9813 161.574 38.3781C161.205 37.7989 160.549 37.4346 160.006 37.0225C159.953 36.9807 159.792 36.8553 160.048 37.0524C159.989 37.0046 159.923 36.9569 159.863 36.9091C159.714 36.7897 159.565 36.6762 159.416 36.5568C159.059 36.2701 158.707 35.9835 158.355 35.6909C157.544 35.016 156.752 34.3174 155.983 33.6007C154.313 32.0541 152.692 30.4178 151.297 28.6144C149.98 26.9124 149.02 25.2582 148.585 23.2697C148.138 21.2154 146.761 19.5851 145.109 18.3609C142.612 16.5156 139.399 15.5243 136.347 15.1123C136.597 15.178 136.847 15.2496 137.098 15.3153C128.466 9.46301 118.451 5.71277 107.977 5.39029C101.712 5.1992 95.2979 6.19051 89.444 8.47171C88.2756 8.92556 87.0834 9.4033 85.9865 10.0244C84.9552 10.6036 85.0387 12.5504 86.3442 12.7534C87.9477 13.0042 89.5394 13.4103 91.1072 13.8164C95.9655 15.0645 100.746 16.6291 105.468 18.3251C109.587 19.8061 113.658 21.4005 117.7 23.0786C118.445 23.3891 119.339 22.7441 119.536 22.0335C119.768 21.1736 119.244 20.5047 118.493 20.1942C112.007 17.501 105.432 15.0048 98.7315 12.8968C95.3992 11.8517 92.0371 10.8783 88.6154 10.1498C88.1206 10.0482 87.6258 9.94075 87.1311 9.86312C87.2503 10.7708 87.3695 11.6845 87.4887 12.5922C87.7093 12.4668 87.9418 12.3533 88.1743 12.2399C88.4604 12.1025 88.7465 11.9652 89.0386 11.8398C89.2115 11.7621 89.3844 11.6905 89.5573 11.6128C89.1042 11.8099 89.7123 11.5531 89.8672 11.4874C92.2815 10.52 94.7912 9.79146 97.3306 9.26595C100.895 8.53142 104.478 8.23881 108.263 8.38213C112.997 8.55531 117.67 9.48093 122.147 11.0216C124.77 11.9234 127.303 13.052 129.753 14.3539C131.113 15.0764 132.448 15.8587 133.753 16.6828C134.361 17.071 134.958 17.5547 135.595 17.8891C135.733 17.9608 136.907 18.2594 135.971 18.0444C136.007 18.0504 136.048 18.0563 136.084 18.0623C137.008 18.2295 137.926 18.4206 138.832 18.6834C140.436 19.1492 141.515 19.5672 142.922 20.4629C143.625 20.9108 144.019 21.2154 144.627 21.9021C145.002 22.3261 145.425 23.0487 145.592 23.61C145.849 24.47 146.004 25.312 146.355 26.148C146.737 27.0617 147.208 27.9216 147.75 28.7517C150.033 32.2332 153.127 35.1892 156.305 37.8466C156.871 38.3184 157.443 38.7842 158.027 39.2321C158.313 39.453 158.6 39.674 158.892 39.895C158.981 39.9606 159.071 40.0263 159.16 40.092C159.41 40.2771 159.249 40.1816 159.148 40.086C159.142 40.0801 158.939 39.7695 159.106 40.0562C159.082 40.0144 158.993 39.7337 159.076 40.0502C159.154 40.3548 159.1 39.7755 159.076 40.0323C159.059 40.1876 159.088 40.3548 159.076 40.516C159.071 40.6235 159.011 41.0535 159.071 40.6653C159.047 40.8206 159.017 40.9818 158.981 41.1371C158.904 41.5073 158.802 41.8716 158.683 42.2299C158.182 43.7945 157.389 45.3233 156.394 46.8281C155.869 47.6283 155.428 48.2076 154.802 48.9003C154.248 49.5094 153.55 50.1663 153.062 50.5067C152.752 50.7217 152.424 50.9068 152.09 51.086C151.792 51.2412 152.15 51.0979 151.834 51.1935C151.649 51.2472 151.47 51.3069 151.285 51.3487C150.29 51.5757 149.992 52.7222 150.397 53.5404C150.784 54.3286 151.136 55.1408 151.482 55.947C151.518 56.0365 151.553 56.1201 151.595 56.2097C151.428 55.8216 151.583 56.1799 151.619 56.2694C151.714 56.5023 151.81 56.7293 151.905 56.9622C152.096 57.4339 152.287 57.9117 152.471 58.3894C152.901 59.5121 153.306 60.6407 153.688 61.7813C154.552 64.379 155.279 67.0305 155.756 69.7237C156 71.1092 156.132 72.1065 156.209 73.5934C156.275 74.8893 156.263 76.2031 156.084 77.493C156.12 77.2242 156.048 77.696 156.03 77.7915C156.001 77.9528 155.971 78.1081 155.941 78.2693C155.869 78.6037 155.792 78.9322 155.696 79.2606C155.607 79.5831 155.494 79.8936 155.381 80.2041C155.357 80.2639 155.333 80.3295 155.309 80.3893C155.363 80.2579 155.363 80.2698 155.303 80.3952C155.232 80.5505 155.16 80.7117 155.077 80.861C154.939 81.1297 154.79 81.3865 154.629 81.6433C154.54 81.7866 154.439 81.924 154.343 82.0673C154.206 82.2644 154.439 81.9718 154.224 82.2166C154.009 82.4614 153.801 82.7003 153.562 82.9213C153.437 83.0407 153.306 83.1542 153.175 83.2676C153.163 83.2796 152.996 83.4169 153.121 83.3154C153.258 83.2019 152.948 83.4408 152.954 83.4348C152.305 83.9066 151.989 84.7367 152.418 85.4772C152.793 86.1281 153.801 86.4924 154.457 86.0206Z" fill="white" stroke="white" stroke-width="2"/>
<path d="M130.576 28.2086C127.237 23.7895 121.431 20.4334 115.822 22.0876C113.413 22.7982 111.303 24.2911 109.551 26.0588C109.181 26.429 108.937 26.7515 108.728 27.2113C107.983 28.8296 108.072 30.6391 109.282 32.0126C110.212 33.0636 111.613 33.6429 112.937 33.9952C115.405 34.6521 118.045 34.7118 120.585 34.664C122.498 34.6282 122.504 31.6423 120.585 31.6782C118.54 31.714 116.448 31.6901 114.528 31.3019C113.878 31.1706 113.247 30.9914 112.633 30.7585C112.376 30.663 112.829 30.866 112.531 30.7107C112.424 30.657 112.317 30.6032 112.209 30.5495C112.114 30.4958 112.019 30.436 111.923 30.3763C111.81 30.3047 111.512 30.024 111.834 30.3285C111.703 30.2031 111.572 30.0777 111.44 29.9583C111.232 29.7672 111.476 30.018 111.476 30.018C111.44 29.9404 111.375 29.8687 111.333 29.7971C111.297 29.7373 111.273 29.6597 111.232 29.6C111.107 29.4388 111.315 29.9643 111.279 29.7075C111.267 29.594 111.22 29.4029 111.178 29.2954C111.232 29.4268 111.19 29.7015 111.208 29.4507C111.214 29.391 111.202 29.3253 111.202 29.2656C111.202 29.2059 111.214 29.1461 111.208 29.0864C111.196 28.7759 111.148 29.2954 111.19 29.2118C111.273 29.0327 111.315 28.764 111.363 28.5729C111.44 28.2922 111.16 28.955 111.333 28.6445C111.375 28.5729 111.405 28.5012 111.44 28.4295C111.488 28.3459 111.53 28.2623 111.589 28.1847C111.464 28.3459 111.852 27.9757 111.935 27.8981C112.364 27.48 112.811 27.0799 113.288 26.7156C114.027 26.1543 114.856 25.6467 115.715 25.2884C118.659 24.0642 121.533 24.7032 124.108 26.3096C124.424 26.5066 124.728 26.7097 125.026 26.9306C125.103 26.9903 125.467 27.265 125.252 27.0978C125.384 27.1994 125.515 27.3068 125.646 27.4143C126.117 27.8085 126.57 28.2205 127.005 28.6565C127.309 28.961 127.601 29.2775 127.881 29.606C128.054 29.809 128.382 30.239 127.995 29.7254C128.477 30.3703 129.282 30.7048 130.033 30.2629C130.671 29.8807 131.065 28.8535 130.576 28.2086Z" fill="white" stroke="white" stroke-width="2"/>
<path d="M115.017 32.1192C111.876 34.8423 108.728 37.5713 105.587 40.2945C100.597 44.618 95.6139 48.9415 90.6244 53.271C89.4798 54.2623 88.3293 55.2596 87.1848 56.2509C87.5365 56.1076 87.8882 55.9583 88.2399 55.815C86.7734 55.7314 85.307 55.6478 83.8346 55.5642C80.1148 55.3552 76.395 55.1581 72.6753 54.967C67.7275 54.7102 62.7857 54.4713 57.8379 54.2504C52.6696 54.0175 47.4953 53.8025 42.3269 53.6293C38.011 53.486 33.6952 53.3606 29.3793 53.3427C26.8279 53.3307 24.1573 53.2113 21.6297 53.6532C20.6521 53.8204 19.9725 54.4355 19.3287 55.1581C17.8921 56.7525 16.6522 58.5441 15.4361 60.3117C12.4018 64.7129 9.5226 69.2991 7.12025 74.0765C6.35125 75.6053 5.34978 77.361 5.2544 79.1107C5.21863 79.7377 5.40939 80.4245 5.52265 81.0396C5.70149 82.0548 5.8982 83.064 6.10685 84.0672C6.697 86.8859 7.40638 89.6807 8.33036 92.4097C9.26031 95.1687 10.375 98.0052 12.1038 100.37C12.8907 101.445 13.761 102.388 14.8578 103.153C14.6134 102.723 14.3631 102.293 14.1187 101.863C14.071 103.266 13.9577 104.676 13.8027 106.073C13.7014 106.975 13.5643 107.972 13.3258 109.047C13.2185 109.537 13.0933 110.026 12.9264 110.498C12.9026 110.576 12.8728 110.653 12.843 110.725C12.7118 111.095 12.986 110.456 12.8191 110.785C12.7297 110.964 12.6343 111.131 12.527 111.298C12.8132 110.827 12.217 111.561 12.6761 111.155C12.5628 111.257 12.4197 111.334 12.3124 111.442C12.068 111.692 11.913 112.003 11.8117 112.331C11.6805 112.761 11.6448 113.233 11.6209 113.681C11.5554 114.923 11.6805 116.177 11.7998 117.407C12.5688 125.439 14.0948 133.424 15.5672 141.354C15.9726 143.534 16.3839 145.713 16.8131 147.887C16.9383 148.526 17.6298 148.986 18.2498 148.986C19.3883 148.986 20.5329 148.986 21.6715 148.986C22.2676 148.986 23.0068 148.526 23.1081 147.887C23.8831 143.014 24.658 138.141 25.433 133.268C25.9516 130.014 26.4702 126.759 26.9888 123.505C27.1498 122.483 27.3107 121.462 27.4776 120.441C27.5194 120.196 27.5849 119.933 27.5969 119.689C27.6207 119.3 27.418 119.91 27.5075 119.844C27.6565 119.718 27.7757 119.462 27.883 119.306C28.1453 118.93 28.4076 118.554 28.6699 118.172C29.4568 117.037 30.2436 115.903 31.0305 114.768C33.0931 111.788 35.1497 108.808 37.1765 105.804C38.6191 103.672 40.1809 101.552 41.4149 99.2892C42.2017 97.844 41.6354 96.0764 41.4864 94.5237C41.3493 93.0965 41.2718 91.6633 41.2837 90.2301C41.2897 89.3821 41.3314 88.5341 41.4149 87.6921C41.4328 87.5069 41.4506 87.3278 41.4745 87.1486C41.4745 87.1606 41.5341 86.7127 41.4983 86.9337C41.4745 87.1188 41.5162 86.8321 41.5222 86.7903C41.5937 86.3544 41.6652 85.9185 41.7606 85.4885C41.9454 84.6405 42.1779 83.8104 42.4819 82.9983C42.5117 82.9147 42.7204 82.4071 42.619 82.64C42.7025 82.4489 42.7919 82.2518 42.8873 82.0667C43.084 81.6666 43.2986 81.2725 43.537 80.8903C44.4074 79.4869 45.6235 78.2985 47.1137 77.4386C48.0139 76.9191 48.7292 76.6324 49.7486 76.3338C51.5846 75.7904 50.8037 72.9061 48.9557 73.4555C44.9796 74.6379 41.7308 77.3072 40.0498 81.1351C38.625 84.3837 38.2197 87.9787 38.3151 91.508C38.3747 93.6399 38.6131 95.7778 38.8575 97.8977C38.8993 98.2441 38.9052 97.6768 38.8873 97.7365C38.8814 97.7664 39.1019 97.3245 38.9052 97.6708C38.7145 97.9993 38.5237 98.3337 38.327 98.6562C37.6474 99.755 36.9261 100.836 36.2108 101.917C32.6639 107.244 29.0037 112.505 25.3435 117.754C25.0991 118.106 24.8368 118.417 24.7355 118.841C24.5924 119.462 24.5328 120.119 24.4315 120.746C23.9606 123.708 23.4896 126.67 23.0187 129.632C22.1126 135.346 21.2005 141.061 20.2944 146.776C20.2766 146.884 20.2587 146.985 20.2467 147.093C20.7236 146.729 21.2065 146.364 21.6834 145.994C20.5448 145.994 19.4003 145.994 18.2617 145.994C18.7386 146.358 19.2214 146.723 19.6983 147.093C18.4942 141.002 17.3854 134.893 16.3779 128.772C16.0203 126.586 15.6745 124.4 15.3705 122.203C15.3347 121.952 15.299 121.707 15.2692 121.456C15.2632 121.414 15.2036 120.967 15.2513 121.325C15.2394 121.235 15.2274 121.152 15.2155 121.062C15.1499 120.555 15.0844 120.047 15.0248 119.545C14.9234 118.673 14.828 117.802 14.7505 116.93C14.6432 115.729 14.5896 114.541 14.6432 113.341C14.6611 112.941 14.5359 113.675 14.6373 113.406C14.6611 113.347 14.6552 113.269 14.679 113.209C14.7863 112.97 14.4763 113.514 14.4704 113.52C13.9219 114.045 14.4942 113.526 14.6731 113.353C14.8638 113.167 15.0248 112.947 15.1678 112.72C15.454 112.278 15.6447 111.77 15.8176 111.274C16.5687 109.113 16.7654 106.712 16.9502 104.443C17.0158 103.672 17.0814 102.896 17.0992 102.12C17.1052 101.881 17.1291 101.69 17.0575 101.439C16.9204 100.931 16.5568 100.704 16.1693 100.406C16.4435 100.615 16.1037 100.352 16.0739 100.322C15.9607 100.221 15.8474 100.119 15.7341 100.018C14.8817 99.2056 14.5002 98.6502 13.8862 97.635C13.2781 96.6258 12.6641 95.3777 12.2647 94.4103C11.2454 91.9857 10.4883 89.4418 9.83854 86.8978C9.308 84.8197 8.86091 82.7176 8.47343 80.6036C8.41382 80.2812 8.36017 79.9587 8.30056 79.6362C8.28267 79.5227 8.26479 79.4033 8.24095 79.2898C8.22902 79.2301 8.22306 79.1704 8.21114 79.1107C8.15153 78.8181 8.21114 79.3376 8.23498 79.3078C8.25883 79.2779 8.23498 79.1047 8.24095 79.0569C8.25287 78.9495 8.13961 79.4869 8.24095 79.1226C8.31844 78.842 8.38998 78.5613 8.47939 78.2866C8.539 78.1194 8.59862 77.9581 8.66419 77.7909C8.70592 77.6894 8.9086 77.2057 8.73572 77.6058C8.9086 77.1997 9.09339 76.7937 9.28415 76.3936C9.72528 75.4739 10.1962 74.5722 10.6791 73.6764C11.8057 71.5923 13.0158 69.55 14.2677 67.5375C15.5255 65.5131 16.8191 63.5125 18.1782 61.5478C18.7684 60.6998 19.3645 59.8519 19.9904 59.0278C20.056 58.9382 20.4852 58.3828 20.2527 58.6754C20.366 58.5321 20.4733 58.3888 20.5865 58.2455C20.825 57.9469 21.0694 57.6483 21.3198 57.3617C21.5046 57.1526 21.6893 56.9436 21.892 56.7525C21.9636 56.6809 22.0411 56.6152 22.1126 56.5435C22.3987 56.2569 21.8205 56.7107 22.1007 56.5495C22.3749 56.3942 21.6655 56.645 21.9516 56.6032C22.0589 56.5913 22.1662 56.5435 22.2735 56.5256C22.3391 56.5137 22.4107 56.5017 22.4762 56.4898C22.7743 56.4301 22.4107 56.6092 22.3153 56.5077C22.351 56.5435 22.7981 56.4539 22.8697 56.448C23.3227 56.4062 23.7698 56.3823 24.2228 56.3644C31.0782 56.0598 37.9932 56.4241 44.8485 56.6689C53.7783 56.9914 62.7022 57.4094 71.6201 57.8693C76.9971 58.144 82.3741 58.4306 87.7511 58.7411C88.3651 58.777 88.7823 58.7531 89.3367 58.2873C89.8613 57.8513 90.368 57.3915 90.8866 56.9436C93.4976 54.6803 96.1086 52.4171 98.7196 50.1478C104.496 45.1435 110.266 40.1332 116.043 35.1289C116.4 34.8184 116.764 34.5019 117.122 34.1913C117.73 33.6658 117.664 32.6208 117.122 32.0773C116.52 31.516 115.631 31.5936 115.017 32.1192Z" fill="white" stroke="white" stroke-width="2"/>
<path d="M28.131 114.697C28.7807 118.423 29.4305 122.155 30.0803 125.882C31.1235 131.853 32.1667 137.825 33.2099 143.803C33.4483 145.17 33.6868 146.538 33.9252 147.911C34.0385 148.55 34.7538 149.01 35.3619 149.01C37.3827 149.01 39.4035 149.01 41.4244 149.01C42.2351 149.01 42.9087 148.323 42.9147 147.517C42.9624 141.725 42.9981 135.926 42.9802 130.133C42.9743 128.844 42.9743 127.548 42.9385 126.258C42.9325 126.085 42.9266 125.911 42.9206 125.738C42.9206 125.673 42.9147 125.601 42.9087 125.529C42.8729 125.171 42.861 125.649 42.8849 125.589C42.9624 125.422 42.9802 125.201 43.0458 125.028C43.0875 124.908 43.1352 124.795 43.177 124.675C43.0339 125.052 43.1889 124.663 43.2545 124.514C44.709 121.397 46.8013 118.53 48.7685 115.73C50.2827 113.568 51.8326 111.43 53.4302 109.322C52.7506 109.501 52.071 109.68 51.3915 109.859C53.4421 110.893 55.7848 111.454 58.0203 111.878C64.1662 113.036 70.4732 112.857 76.637 111.884C81.7934 111.072 86.8366 109.65 91.7307 107.829C91.1704 107.602 90.61 107.369 90.0496 107.142C90.1212 107.25 90.151 107.387 90.2285 107.483C90.2881 107.56 90.0735 107.041 90.1808 107.375C90.2046 107.453 90.2344 107.53 90.2643 107.608C90.3298 107.811 90.3835 108.014 90.4312 108.217C90.461 108.349 90.4789 108.474 90.5027 108.605C90.5802 109.006 90.4967 108.325 90.5146 108.689C90.5325 109.029 90.5623 109.364 90.5564 109.704C90.5504 110.062 90.5265 110.415 90.4848 110.773C90.455 111.024 90.5504 110.409 90.4729 110.833C90.455 110.922 90.4431 111.012 90.4252 111.102C90.3775 111.364 90.3179 111.621 90.2583 111.878C89.6503 114.314 88.3746 116.506 86.9022 118.554C86.3299 119.349 85.2449 120.256 85.2509 121.271C85.2509 121.51 85.2867 121.755 85.2986 121.994C85.7338 128.342 86.1689 134.684 86.6101 141.032C86.7591 143.194 86.9081 145.349 87.0571 147.511C87.1108 148.252 87.7009 149.088 88.5474 149.004C90.6219 148.795 92.6964 148.586 94.7649 148.383C95.5697 148.305 96.2552 147.762 96.2552 146.89C96.2552 141.062 96.2552 135.227 96.2552 129.399C96.2552 128.581 96.2552 127.769 96.2552 126.951C96.1122 127.303 95.9631 127.655 95.8201 128.008C96.9646 126.783 98.0436 125.493 99.0927 124.186C101.048 121.737 102.991 119.157 104.303 116.291C104.935 114.906 105.507 113.395 105.435 111.842C105.346 109.931 102.359 109.919 102.455 111.842C102.461 111.991 102.467 112.135 102.461 112.284C102.455 112.397 102.401 112.804 102.455 112.469C102.395 112.851 102.3 113.228 102.187 113.592C101.924 114.428 101.751 114.792 101.322 115.622C100.47 117.27 99.4325 118.817 98.3416 120.31C96.9885 122.155 95.3312 124.024 93.7456 125.876C93.2091 126.503 93.2866 127.154 93.2866 127.906C93.2866 128.993 93.2866 130.08 93.2866 131.167C93.2866 134.326 93.2866 137.485 93.2866 140.644C93.2866 142.728 93.2866 144.818 93.2866 146.902C93.7813 146.406 94.2821 145.905 94.7769 145.409C92.7024 145.618 90.6279 145.827 88.5594 146.03C89.0541 146.526 89.5549 147.028 90.0496 147.523C89.847 144.573 89.6443 141.617 89.4416 138.667C89.1137 133.931 88.7918 129.19 88.464 124.454C88.3865 123.368 88.315 122.281 88.2375 121.194C88.0944 121.546 87.9454 121.898 87.8023 122.251C90.1689 119.366 92.3805 116.094 93.215 112.391C93.6264 110.576 93.7456 108.558 93.1375 106.766C93.0064 106.384 92.8633 105.978 92.6428 105.637C92.3089 105.118 91.5876 104.718 90.9617 104.951C83.391 107.763 75.4031 109.656 67.3018 109.704C65.8592 109.71 64.4166 109.662 62.98 109.549C62.3481 109.495 61.7102 109.435 61.0784 109.358C61.0128 109.352 60.6551 109.304 60.7982 109.322C60.9412 109.34 60.5359 109.286 60.4644 109.274C60.1842 109.232 59.91 109.191 59.6298 109.143C57.9309 108.856 56.2438 108.468 54.6105 107.931C54.1097 107.763 53.615 107.525 53.1083 107.375C53.6388 107.53 53.15 107.399 52.9235 107.286C52.1366 106.892 51.3974 107.142 50.8848 107.823C49.5316 109.603 48.2201 111.412 46.9265 113.233C44.852 116.154 42.7299 119.116 41.0667 122.299C40.5302 123.32 39.952 124.442 39.9579 125.625C39.9639 126.664 40.0056 127.703 40.0116 128.742C40.0354 132.427 40.0175 136.117 39.9997 139.802C39.9877 142.376 39.9698 144.949 39.952 147.523C40.4467 147.028 40.9475 146.526 41.4423 146.03C39.4214 146.03 37.4006 146.03 35.3797 146.03C35.8566 146.394 36.3395 146.759 36.8164 147.129C36.1666 143.403 35.5169 139.67 34.8671 135.944C33.8239 129.972 32.7807 124.001 31.7375 118.023C31.499 116.655 31.2606 115.288 31.0221 113.914C30.885 113.12 29.9133 112.672 29.1861 112.869C28.3336 113.09 27.9879 113.902 28.131 114.697Z" fill="white" stroke="white" stroke-width="2"/>
<path d="M99.964 94.0761C100.274 96.4289 100.62 98.7818 100.971 101.129C101.746 106.294 102.581 111.454 103.511 116.589C104.542 122.298 105.663 128.001 107.082 133.627C107.672 135.956 108.31 138.273 109.097 140.548C109.687 142.256 110.331 144.018 111.302 145.546C111.648 146.09 112.047 146.633 112.542 147.051C113.293 147.69 114.074 147.595 114.986 147.595C117.442 147.595 119.898 147.595 122.354 147.595C122.539 147.595 122.73 147.595 122.915 147.595C123.862 147.595 124.631 146.639 124.351 145.708C122.348 139.097 120.345 132.492 118.348 125.882C118.068 124.962 117.788 124.036 117.514 123.117C117.514 123.379 117.514 123.648 117.514 123.911C118.36 117.706 119.207 111.502 120.053 105.291C120.548 101.666 121.043 98.0473 121.538 94.4224C121.609 93.8969 121.681 93.3714 121.752 92.8459C121.782 92.607 121.883 92.3025 121.859 92.0636C121.836 91.8546 122.116 91.974 121.722 92.3204C121.8 92.2487 121.853 92.0636 121.895 91.974C122.181 91.4007 122.467 90.8275 122.754 90.2542C124.429 86.8981 126.104 83.536 127.785 80.1799C128.637 78.466 126.068 76.9492 125.21 78.675C123.189 82.7178 121.037 86.7189 119.147 90.8274C118.95 91.2514 118.932 91.6754 118.867 92.1353C118.748 93.0131 118.628 93.885 118.509 94.7628C118.122 97.6233 117.728 100.478 117.341 103.338C116.536 109.22 115.737 115.109 114.933 120.991C114.795 121.976 114.45 123.212 114.724 124.186C115.314 126.252 115.97 128.306 116.596 130.366C118.193 135.633 119.785 140.9 121.383 146.173C121.418 146.281 121.448 146.394 121.484 146.502C121.961 145.875 122.444 145.242 122.921 144.615C119.862 144.615 116.804 144.615 113.746 144.615C113.997 144.681 114.247 144.752 114.497 144.818C114.259 144.651 114.807 145.128 114.545 144.848C114.474 144.776 114.396 144.704 114.325 144.633C114.259 144.567 114.205 144.489 114.14 144.424C113.949 144.233 114.348 144.746 114.08 144.34C113.764 143.862 113.478 143.367 113.222 142.853C113.073 142.555 112.942 142.25 112.804 141.945C112.638 141.575 112.888 142.16 112.739 141.784C112.655 141.569 112.566 141.36 112.483 141.145C112.167 140.333 111.886 139.509 111.618 138.679C110.283 134.552 109.305 130.307 108.399 126.067C106.533 117.324 105.067 108.492 103.749 99.6537C103.535 98.2085 103.326 96.7693 103.123 95.3242C103.07 94.93 103.016 94.5359 102.963 94.1358C102.951 94.0283 102.933 93.9208 102.921 93.8133C102.891 93.5804 102.986 94.3269 102.957 94.0761C102.849 93.2759 102.349 92.5831 101.466 92.5831C100.733 92.5831 99.8567 93.2699 99.964 94.0761Z" fill="white" stroke="white" stroke-width="2"/>
<path d="M140.084 61.9836C140.084 67.8121 140.084 73.6464 140.084 79.4748C140.084 80.293 140.084 81.1051 140.084 81.9233C140.227 81.5709 140.376 81.2186 140.519 80.8663C137.92 83.5356 135.321 86.211 132.716 88.8803C128.573 93.1322 124.436 97.39 120.293 101.642C119.345 102.615 118.397 103.589 117.455 104.556C116.114 105.936 118.218 108.044 119.566 106.67C121.378 104.807 123.19 102.95 124.996 101.087C128.483 97.5035 131.971 93.9205 135.464 90.3315C137.783 87.9487 140.126 85.5899 142.421 83.1833C142.772 82.813 143.035 82.4428 143.065 81.8874C143.088 81.4754 143.065 81.0514 143.065 80.6393C143.065 78.603 143.065 76.5606 143.065 74.5243C143.065 70.4217 143.142 66.3132 143.065 62.2165C143.065 62.1389 143.065 62.0553 143.065 61.9777C143.065 60.0667 140.084 60.0608 140.084 61.9836Z" fill="white" stroke="white" stroke-width="2"/>
<path d="M3.79882 66.0692C3.84055 65.9976 3.88824 65.9319 3.93593 65.8662C3.98958 65.7886 4.04919 65.7169 4.10284 65.6393C4.25783 65.4064 3.86439 65.92 4.00746 65.7647C4.06707 65.699 4.11476 65.6273 4.17438 65.5616C4.74665 64.863 5.39045 64.224 6.06407 63.6268C6.28463 63.4297 6.50519 63.2446 6.73172 63.0595C6.77941 63.0237 7.12516 62.743 6.99997 62.8445C6.91055 62.9162 7.26226 62.6474 7.34572 62.5818C7.98356 62.11 8.64526 61.6681 9.32483 61.256C10.988 60.2468 12.7406 59.4048 14.5528 58.724C17.3486 57.673 20.2636 56.9624 23.2084 56.4667C24.0012 56.3353 24.4483 55.35 24.2516 54.6274C24.0191 53.7854 23.2144 53.451 22.4156 53.5824C17.5274 54.4005 12.669 55.8576 8.35316 58.3538C6.09387 59.6616 3.90016 61.2739 2.20123 63.2745C1.86144 63.6806 1.50973 64.0926 1.22956 64.5465C0.222117 66.2066 2.79734 67.7115 3.79882 66.0692Z" fill="white" stroke="white" stroke-width="2"/>
<path d="M146.993 21.0597C151.768 17.9126 156.567 14.7357 161.562 11.9588C162.093 11.6662 162.629 11.3855 163.178 11.1168C163.416 11.0033 163.428 11.0451 163.154 11.1228C163.22 11.1049 163.273 11.081 163.339 11.069C162.904 11.1407 162.391 11.0511 162.069 10.5137C162.164 10.6689 161.92 10.0658 161.986 10.3166C162.039 10.5137 161.914 9.83886 161.956 10.1315C161.962 10.1972 161.956 10.2748 161.95 10.3345C161.926 10.5256 162.051 9.88663 161.956 10.2688C161.837 10.7227 161.717 11.1646 161.556 11.6065C161.461 11.8633 161.36 12.1201 161.258 12.3768C161.121 12.7232 161.348 12.1857 161.193 12.5381C161.121 12.6993 161.05 12.8606 160.978 13.0218C160.686 13.6787 160.376 14.3356 160.054 14.9805C159.381 16.3421 158.671 17.6857 157.95 19.0234C156.966 20.8328 155.959 22.6243 154.91 24.392C155.208 24.165 155.506 23.9321 155.798 23.7052C153.67 24.4815 151.548 25.2638 149.419 26.0402C148.662 26.3149 148.156 27.0554 148.376 27.8795C148.579 28.608 149.449 29.1992 150.212 28.9245C151.661 28.393 153.109 27.8615 154.552 27.336C155.595 26.9538 156.99 26.6911 157.598 25.6998C159.16 23.1439 160.585 20.4865 161.95 17.8231C162.802 16.1629 163.625 14.4789 164.299 12.7351C164.722 11.6423 165.294 10.1554 164.656 9.03865C163.673 7.32476 161.717 8.48328 160.483 9.15211C158.635 10.1554 156.847 11.2542 155.059 12.3589C151.84 14.3535 148.65 16.4018 145.485 18.4859C143.893 19.531 145.384 22.1167 146.993 21.0597Z" fill="white" stroke="white" stroke-width="2"/>
<path d="M117.592 8.36453C117.777 8.13163 117.985 7.92262 118.2 7.71361C118.426 7.48668 118.665 7.2717 118.909 7.06269C119.064 6.93131 119.225 6.79993 119.38 6.67453C119.112 6.88354 119.69 6.45357 119.785 6.38789C121.705 5.05022 123.767 4.20223 126.134 4.01114C129.013 3.77824 131.946 4.40527 134.343 6.05347C134.7 6.29831 135.141 6.68647 135.523 7.07463C135.714 7.26573 135.898 7.46877 136.071 7.67181C136.334 7.97637 136.322 7.96442 136.524 8.25107C136.852 8.71686 137.15 9.20057 137.419 9.70817C137.538 9.92912 137.651 10.156 137.758 10.3889C137.812 10.5024 137.86 10.6159 137.913 10.7293C137.955 10.8249 137.955 10.8189 137.907 10.7174C137.943 10.807 137.979 10.9025 138.021 10.9921C138.76 12.909 139.141 14.9036 139.523 16.9101C139.672 17.7043 140.626 18.1522 141.359 17.9551C142.188 17.7282 142.551 16.916 142.402 16.1158C141.568 11.7206 140.405 7.1463 136.769 4.18432C131.839 0.165343 124.459 0.0459085 119.106 3.28856C117.8 4.07683 116.465 5.06813 115.499 6.26248C114.993 6.88951 114.885 7.76138 115.499 8.37647C116.006 8.88407 117.085 8.99156 117.592 8.36453Z" fill="white" stroke="white" stroke-width="2"/>
</svg>
