<svg width="223" height="129" viewBox="0 0 223 129" fill="none" xmlns="http://www.w3.org/2000/svg">
<path d="M69.7575 57.9346C70.9537 35.6104 89.1561 18.2728 111.653 18.2728C134.021 18.2728 152.511 36.086 153.549 58.2661C153.621 58.194 153.693 58.122 153.779 58.0643C155.004 56.9978 156.316 56.0322 157.642 55.1243C155.077 32.0363 135.332 13.9492 111.653 13.9492C87.8014 13.9492 68.3308 31.6327 65.6934 54.8649C66.8031 55.5999 67.8984 56.3781 68.9216 57.214L69.7575 57.9346Z" fill="white" stroke="white" stroke-width="0.5"/>
<path d="M140.493 90.7078C132.667 98.1299 122.493 102.209 111.655 102.209C101.033 102.209 90.9592 98.2597 83.1767 91.0537C83.1911 90.924 83.1767 90.8087 83.1911 90.6934C83.1479 91.169 83.119 91.6445 83.0614 92.149C82.9029 93.4893 82.6867 94.8152 82.3984 96.1123C90.6421 102.871 100.889 106.547 111.655 106.547C122.608 106.547 132.941 102.785 141.228 95.8529C140.911 94.354 140.666 92.8119 140.522 91.2554C140.508 91.0537 140.508 90.8807 140.493 90.7078Z" fill="white" stroke="white" stroke-width="0.5"/>
<path d="M40.5177 128.424C18.7267 128.424 1 110.697 1 88.9063C1 67.1154 18.7267 49.3887 40.5177 49.3887C62.3086 49.3887 80.0353 67.1154 80.0353 88.9063C80.0353 110.697 62.3086 128.424 40.5177 128.424ZM40.5177 53.6979C21.1191 53.6979 5.3236 69.4934 5.3236 88.9063C5.3236 108.319 21.1191 124.1 40.5177 124.1C59.9162 124.1 75.7117 108.305 75.7117 88.9063C75.7117 69.5078 59.9306 53.6979 40.5177 53.6979Z" fill="white" stroke="white" stroke-width="0.5"/>
<path d="M182.721 128.424C160.93 128.424 143.203 110.697 143.203 88.9063C143.203 67.1154 160.93 49.3887 182.721 49.3887C204.512 49.3887 222.238 67.1154 222.238 88.9063C222.238 110.697 204.512 128.424 182.721 128.424ZM182.721 53.6979C163.308 53.6979 147.527 69.4934 147.527 88.8919C147.527 108.29 163.322 124.086 182.721 124.086C202.119 124.086 217.915 108.29 217.915 88.8919C217.915 69.4934 202.134 53.6979 182.721 53.6979Z" fill="white" stroke="white" stroke-width="0.5"/>
<path d="M87.5998 56.1487C87.6431 53.2663 89.9922 50.9027 92.9034 50.9027C95.8147 50.9027 98.1782 53.2663 98.2071 56.1487C98.2359 57.9213 100.974 57.9213 100.96 56.1487C100.917 52.7763 98.8124 49.8218 95.6706 48.64C92.6152 47.4871 88.9113 48.4383 86.8072 50.9459C85.5677 52.4304 84.8904 54.2175 84.8616 56.1487C84.8327 57.9069 87.5854 57.9069 87.5998 56.1487Z" fill="white" stroke="white" stroke-width="0.5"/>
<path d="M123.575 56.1487C123.618 53.2663 125.967 50.9027 128.878 50.9027C131.79 50.9027 134.153 53.2663 134.182 56.1487C134.211 57.9213 136.949 57.9213 136.935 56.1487C136.891 52.7763 134.787 49.8218 131.645 48.64C128.59 47.4871 124.886 48.4383 122.782 50.9459C121.543 52.4304 120.865 54.2175 120.836 56.1487C120.793 57.9069 123.546 57.9069 123.575 56.1487Z" fill="white" stroke="white" stroke-width="0.5"/>
<path d="M125.751 69.3347C125.65 77.0307 119.41 83.4729 111.627 83.4585C103.845 83.444 97.6045 77.0451 97.5036 69.3347C96.8983 69.94 96.3074 70.5309 95.7021 71.1362C105.012 71.1362 114.308 71.1362 123.618 71.1362C124.93 71.1362 126.255 71.1362 127.567 71.1362C129.887 71.1362 129.887 67.5332 127.567 67.5332C118.257 67.5332 108.961 67.5332 99.651 67.5332C98.3395 67.5332 97.0136 67.5332 95.7021 67.5332C94.7365 67.5332 93.8862 68.3547 93.9006 69.3347C94.0015 76.7136 98.5268 83.3143 105.445 85.9517C112.29 88.5603 120.462 86.4417 125.146 80.8066C127.855 77.5495 129.296 73.5718 129.354 69.3347C129.383 67.0144 125.78 67.0144 125.751 69.3347Z" fill="white" stroke="white" stroke-width="0.5"/>
<path d="M21.7683 92.4817C21.235 91.689 20.99 90.9252 20.99 90.0605C20.99 89.2246 21.2062 88.4607 21.725 87.6969C21.9124 87.4087 22.2583 87.034 22.6186 86.7313C22.6618 86.7025 22.7339 86.6448 22.8492 86.5728C22.95 86.5007 23.0509 86.4431 23.1662 86.3854C23.2671 86.3278 23.3824 86.2701 23.4833 86.2125C23.613 86.1548 23.5554 86.1692 23.7283 86.1116C23.9445 86.0251 24.1751 85.9675 24.4057 85.9242C24.4633 85.9098 24.6939 85.8666 24.6651 85.881C24.6507 85.881 24.8957 85.8666 24.9821 85.8522C25.5298 85.8233 25.7748 85.8522 26.236 85.9819C27.1728 86.2269 28.0231 86.7889 28.5707 87.5672C28.9022 88.0428 29.5219 88.2734 30.0552 87.9563C30.5308 87.6825 30.7902 86.9475 30.4443 86.4719C28.9022 84.2957 26.2072 83.2148 23.5986 83.8921C20.99 84.5695 19.1309 86.8466 18.8426 89.4984C18.6841 90.9108 19.0876 92.3952 19.8803 93.577C20.2118 94.067 20.8315 94.2688 21.3647 93.9661C21.8691 93.6779 22.0997 92.9717 21.7683 92.4817Z" fill="white" stroke="white" stroke-width="0.5"/>
<path d="M44.6667 76.5559C44.1335 75.7632 43.8885 74.9994 43.8885 74.1347C43.8885 73.2988 44.1046 72.535 44.6235 71.7711C44.8108 71.4829 45.1567 71.1082 45.517 70.8055C45.5602 70.7767 45.6323 70.719 45.7476 70.647C45.8485 70.5749 45.9494 70.5173 46.0647 70.4596C46.1655 70.402 46.2808 70.3443 46.3817 70.2867C46.5114 70.229 46.4538 70.2435 46.6267 70.1858C46.8429 70.0993 47.0735 70.0417 47.3041 69.9984C47.3617 69.984 47.5923 69.9408 47.5635 69.9552C47.5491 69.9552 47.7941 69.9408 47.8806 69.9264C48.4282 69.8976 48.6732 69.9264 49.1344 70.0561C50.0712 70.3011 50.9215 70.8632 51.4692 71.6414C51.8006 72.117 52.4204 72.3476 52.9536 72.0305C53.4292 71.7567 53.6886 71.0217 53.3427 70.5461C51.8006 68.3699 49.1056 67.289 46.497 67.9664C43.8885 68.6437 42.0293 70.9208 41.7411 73.5726C41.5825 74.985 41.9861 76.4694 42.7787 77.6512C43.1102 78.1412 43.7299 78.343 44.2632 78.0403C44.7532 77.7665 44.9982 77.0459 44.6667 76.5559Z" fill="white" stroke="white" stroke-width="0.5"/>
<path d="M166.851 76.2815C167.485 74.0477 169.777 72.765 171.982 73.3559C174.245 73.9612 175.527 76.2671 174.965 78.4433C174.619 79.7981 176.709 80.3745 177.055 79.0198C177.718 76.4112 176.709 73.7306 174.518 72.1741C172.429 70.6753 169.417 70.6609 167.312 72.1309C166.059 72.9956 165.18 74.235 164.762 75.705C164.387 77.0454 166.477 77.6218 166.851 76.2815Z" fill="white" stroke="white" stroke-width="0.5"/>
<path d="M193.804 83.4456C194.438 81.2117 196.729 79.9291 198.934 80.52C201.197 81.1253 202.48 83.4312 201.917 85.6074C201.572 86.9621 203.661 87.5386 204.007 86.1839C204.67 83.5753 203.661 80.8947 201.471 79.3382C199.381 77.8393 196.369 77.8249 194.265 79.2949C193.011 80.1597 192.132 81.3991 191.714 82.8691C191.325 84.2094 193.429 84.7859 193.804 83.4456Z" fill="white" stroke="white" stroke-width="0.5"/>
<path d="M54.1667 83.9348C57.467 88.8349 57.5967 95.1473 54.282 100.091C50.996 104.962 44.7268 107.239 39.0773 105.769C35.849 104.933 33.0099 102.973 31.0787 100.249C29.7528 98.3756 26.6254 100.177 27.9657 102.065C32.246 108.104 39.697 111.101 46.9463 109.285C54.2099 107.484 59.4991 101.128 60.263 93.7494C60.6809 89.6708 59.5568 85.5057 57.2797 82.1189C55.997 80.2021 52.8696 82.0036 54.1667 83.9348Z" fill="white" stroke="white" stroke-width="0.5"/>
<path d="M178.425 110.439C177.604 110.439 176.782 110.31 175.99 110.036C171.046 108.364 168.755 101.864 170.888 95.5661C173.021 89.268 178.786 85.5065 183.743 87.1783C188.687 88.8501 190.978 95.3499 188.845 101.648C187.044 106.937 182.691 110.439 178.425 110.439ZM181.236 89.6572C178.18 89.6572 174.995 92.4099 173.597 96.4884C171.969 101.288 173.453 106.13 176.898 107.297C180.342 108.465 184.464 105.51 186.093 100.726C187.721 95.9264 186.237 91.084 182.792 89.9166C182.288 89.7436 181.769 89.6572 181.236 89.6572Z" fill="white" stroke="white" stroke-width="0.5"/>
<path d="M156.155 2.14804L156.155 2.14742C156.01 1.65691 156.094 1.25666 156.296 0.953694C156.501 0.644553 156.84 0.418939 157.226 0.314242C157.612 0.209589 158.026 0.230825 158.374 0.392255C158.716 0.550933 159.007 0.850992 159.149 1.33747L159.149 1.33748L159.149 1.3396C159.264 1.72031 159.376 2.10119 159.487 2.48328L159.488 2.48369C159.599 2.86501 159.711 3.24754 159.826 3.63023C160.597 6.25204 161.368 8.87745 162.139 11.5029L162.139 11.5054C162.91 14.132 163.681 16.7586 164.452 19.3817L164.453 19.3827C164.598 19.8691 164.514 20.2673 164.312 20.5698C164.107 20.8785 163.768 21.1046 163.382 21.2102C162.995 21.3157 162.581 21.2956 162.233 21.1352C161.892 20.9776 161.601 20.6786 161.459 20.1922L161.458 20.1901C161.343 19.8094 161.232 19.4285 161.12 19.0464L161.12 19.046C161.009 18.6647 160.897 18.2822 160.781 17.8995C160.01 15.2769 159.239 12.6506 158.468 10.0243L158.468 10.0224C157.697 7.39642 156.926 4.77043 156.155 2.14804Z" fill="white" stroke="white" stroke-width="0.5"/>
<path d="M182.357 25.3093L182.357 25.3093L182.358 25.3075C182.559 24.977 182.764 24.6464 182.97 24.3148L182.97 24.3143C183.175 23.9833 183.381 23.6514 183.583 23.3193C185.024 20.9846 186.462 18.6463 187.899 16.3082L187.899 16.3079C189.337 13.9697 190.774 11.6316 192.215 9.29718C192.48 8.86772 192.84 8.6551 193.212 8.59141C193.59 8.52665 193.996 8.61395 194.341 8.8145C194.687 9.01516 194.955 9.31959 195.073 9.66941C195.189 10.0122 195.168 10.418 194.902 10.851L194.902 10.8517C194.701 11.1822 194.496 11.5129 194.29 11.8445L194.29 11.8445C194.085 12.1756 193.88 12.5077 193.677 12.8399C192.236 15.1747 190.799 17.513 189.361 19.8511L189.361 19.8517C187.923 22.1899 186.486 24.5278 185.045 26.8621L185.045 26.8628C184.779 27.2957 184.419 27.5097 184.046 27.574C183.667 27.6393 183.26 27.5516 182.914 27.3502C182.567 27.1487 182.299 26.8431 182.181 26.4924C182.066 26.1489 182.088 25.7424 182.357 25.3093Z" fill="white" stroke="white" stroke-width="0.5"/>
<path d="M197.548 37.2645L197.548 37.2645L197.55 37.2639C197.931 37.1489 198.312 37.0376 198.694 36.9258L198.694 36.9257C199.076 36.8142 199.458 36.7023 199.841 36.5868C202.463 35.8159 205.089 35.045 207.715 34.2741L207.716 34.2739C210.343 33.5029 212.969 32.7319 215.592 31.9609C216.082 31.8186 216.483 31.9049 216.786 32.1069C217.096 32.313 217.322 32.6517 217.426 33.0367C217.531 33.4216 217.51 33.8348 217.348 34.1812C217.19 34.5217 216.89 34.812 216.403 34.9542L216.401 34.9549C216.02 35.0698 215.639 35.1812 215.257 35.293L215.257 35.2931C214.875 35.4046 214.493 35.5165 214.11 35.632C211.488 36.4029 208.861 37.1739 206.235 37.9448C203.608 38.7159 200.982 39.4869 198.359 40.258L198.358 40.2583C197.871 40.4036 197.473 40.3191 197.171 40.1179C196.862 39.9125 196.636 39.5734 196.53 39.1871C196.425 38.801 196.445 38.3863 196.605 38.0389C196.763 37.6975 197.062 37.4066 197.548 37.2645Z" fill="white" stroke="white" stroke-width="0.5"/>
</svg>
