<svg width="38" height="60" viewBox="0 0 38 60" fill="none" xmlns="http://www.w3.org/2000/svg">
<path d="M19 0C8.5044 0 0 8.36398 0 18.7242C0 36.6379 19 60 19 60C19 60 38 36.6341 38 18.7242C38 8.36773 29.4956 0 19 0ZM19 29.0844C16.2789 29.0844 13.6692 28.017 11.7451 26.117C9.82096 24.217 8.74 21.6401 8.74 18.9531C8.74 16.2661 9.82096 13.6892 11.7451 11.7892C13.6692 9.88917 16.2789 8.82176 19 8.82176C21.7211 8.82176 24.3308 9.88917 26.2549 11.7892C28.179 13.6892 29.26 16.2661 29.26 18.9531C29.26 21.6401 28.179 24.217 26.2549 26.117C24.3308 28.017 21.7211 29.0844 19 29.0844Z" fill="url(#paint0_radial_977_3010)"/>
<defs>
<radialGradient id="paint0_radial_977_3010" cx="0" cy="0" r="1" gradientUnits="userSpaceOnUse" gradientTransform="translate(19 21) rotate(90) scale(39 24.7)">
<stop stop-color="#306C00"/>
<stop offset="1" stop-color="#243C12"/>
</radialGradient>
</defs>
</svg>
