<svg width="97" height="140" viewBox="0 0 97 140" fill="none" xmlns="http://www.w3.org/2000/svg">
<path d="M75.2997 89.4054C76.7243 88.1994 78.8524 88.38 80.056 89.8074C81.2596 91.2349 81.0794 93.3674 79.6548 94.5734L51.4598 118.444V132.387C62.8332 131.548 73.032 126.706 79.7769 118.829C96.0927 99.7822 88.5163 72.4098 79.2885 52.804C74.567 42.7826 66.4731 31.2056 59.2572 21.9999C58.1059 20.5316 58.3618 18.405 59.827 17.2514C61.2923 16.0978 63.4146 16.3541 64.5659 17.8224C71.997 27.3019 80.4049 39.3218 85.3938 49.9141C99.8489 80.625 99.6803 105.976 84.9054 123.228C76.2882 133.284 63.0134 139.134 48.4711 139.285C48.4595 139.285 48.4479 139.285 48.4362 139.285C46.7907 139.285 44.7207 137.799 44.7207 135.644V116.877C44.7207 115.881 45.1568 114.937 45.9185 114.296L75.2997 89.4054Z" fill="white"/>
<path d="M23.7528 68.1392L48.0287 87.8089L72.5198 67.5915C73.956 66.403 76.0841 66.6127 77.2703 68.0518C78.4565 69.4909 78.2472 71.6234 76.811 72.8119C76.433 73.1207 50.3894 94.6432 49.9882 94.9229C48.6799 95.8551 47.0112 95.6978 45.9238 94.8005L19.5081 73.3946C18.0603 72.2176 17.8335 70.091 19.0081 68.6403C20.1826 67.1895 22.3049 66.9623 23.7528 68.1392Z" fill="white"/>
<path d="M65.5264 49.2451C66.9336 48.0215 69.0617 48.173 70.2828 49.583C71.5038 50.9931 71.3527 53.1256 69.9455 54.3491L61.8865 61.3584C60.4793 62.582 58.3512 62.4305 57.1301 61.0205C55.9091 59.6105 56.0603 57.478 57.4674 56.2544L65.5264 49.2451Z" fill="white"/>
<path d="M38.6971 110.114C37.5167 111.558 35.3944 111.774 33.9524 110.597L14.6247 94.7957C13.1827 93.6129 12.9675 91.4862 14.1421 90.0413C15.3224 88.5963 17.4448 88.3807 18.8868 89.5577L38.2087 105.359C39.6623 106.542 39.8775 108.669 38.6971 110.114Z" fill="white"/>
<path d="M10.7228 49.9265C19.8517 30.5303 40.7784 6.95073 45.4417 1.24664C47.5524 -1.34612 51.7447 0.407637 51.4017 3.73453C51.4889 4.25309 51.4598 0.506685 51.4598 67.7962C51.4598 70.9891 47.7152 72.032 45.715 70.4531L25.7244 54.6401C24.265 53.4807 24.0149 51.3598 25.1662 49.8916C26.3233 48.4291 28.4398 48.1786 29.9051 49.3322L44.7091 61.0434V12.6199C36.6559 22.2917 23.387 38.8621 16.8223 52.8106C7.59452 72.4166 0.0122871 99.7892 16.3339 118.836C21.503 124.872 27.1141 129.149 35.3999 131.2C37.2083 131.648 38.313 133.478 37.8653 135.29C37.4176 137.102 35.586 138.209 33.7776 137.76C24.1254 135.371 17.3049 130.349 11.2112 123.235C-3.5695 105.983 -3.73813 80.6319 10.7228 49.9265Z" fill="white"/>
</svg>
