<svg width="70" height="72" viewBox="0 0 70 72" fill="none" xmlns="http://www.w3.org/2000/svg">
<path d="M35.3686 0.484375C36.5167 0.484375 37.6178 0.949118 38.4297 1.77636C39.2415 2.60361 39.6976 3.7256 39.6976 4.8955V31.3623H65.6718C66.82 31.3623 67.9211 31.827 68.7329 32.6543C69.5448 33.4815 70.0009 34.6035 70.0009 35.7734C70.0009 36.9433 69.5448 38.0653 68.7329 38.8925C67.9211 39.7198 66.82 40.1845 65.6718 40.1845H39.6976V66.6513C39.6976 67.8212 39.2415 68.9432 38.4297 69.7704C37.6178 70.5977 36.5167 71.0624 35.3686 71.0624C34.2205 71.0624 33.1194 70.5977 32.3075 69.7704C31.4957 68.9432 31.0396 67.8212 31.0396 66.6513V40.1845H5.06536C3.91723 40.1845 2.81612 39.7198 2.00427 38.8925C1.19242 38.0653 0.736328 36.9433 0.736328 35.7734C0.736328 34.6035 1.19242 33.4815 2.00427 32.6543C2.81612 31.827 3.91723 31.3623 5.06536 31.3623H31.0396V4.8955C31.0396 3.7256 31.4957 2.60361 32.3075 1.77636C33.1194 0.949118 34.2205 0.484375 35.3686 0.484375V0.484375Z" fill="white"/>
</svg>
