<svg width="404" height="384" viewBox="0 0 404 384" fill="none" xmlns="http://www.w3.org/2000/svg">
<path d="M144.289 328.395L116 383.577H316L287.422 328.395H144.289Z" fill="#7D7D7D" fill-opacity="0.1"/>
<path d="M207.262 0.255859L185.066 40.2551C179.889 49.5803 174.52 59.4263 169.343 68.9409L168.768 69.9823C166.131 74.8106 161.529 84.0412 156.543 93.9345C153.284 100.42 149.401 108.135 146.476 113.816L125 150.454L158.605 150.927H159.372H159.995L192.641 151.401L205.201 131.804C205.776 130.81 206.303 129.815 206.878 128.821L209.131 132.845C222.362 156.561 246.475 206.358 269.917 254.689C292.831 301.978 314.5 346.616 327.443 370.284L334.202 382.592H404L207.262 0.255859Z" fill="#7D7D7D" fill-opacity="0.1"/>
<path d="M110.28 178.965C105.429 187.187 100.866 194.934 95.4386 205.106L94.8622 206.151C78.6756 236.475 63.4016 265.087 45.9181 297.216L45.5339 297.929C40.6346 306.912 35.6394 316.608 31.0283 325.544C26.5614 334.194 21.9504 343.129 17.4354 351.494L0 383.576H92.4606L120.127 328.348H97.1197C102.643 317.986 108.215 307.578 113.739 297.169L114.411 295.886C130.79 265.182 147.745 233.385 163.98 203.537L183 169.744H115.66C113.787 172.929 112.009 175.97 110.28 178.965Z" fill="#7D7D7D" fill-opacity="0.1"/>
</svg>
