<svg id="레이어_1" data-name="레이어 1" xmlns="http://www.w3.org/2000/svg" xmlns:xlink="http://www.w3.org/1999/xlink" viewBox="0 0 350.16 98.29"><defs><style>.cls-1{fill:url(#무제_그라디언트_862);}.cls-2{fill:url(#무제_그라디언트_952);}.cls-3{fill:url(#무제_그라디언트_792);}.cls-4{fill:#040000;}.cls-5{fill:#231815;}</style><linearGradient id="무제_그라디언트_862" x1="21.01" y1="505.12" x2="82.97" y2="505.12" gradientTransform="matrix(1, 0, 0, -1, 0, 597.45)" gradientUnits="userSpaceOnUse"><stop offset="0.03" stop-color="#88c6ed"/><stop offset="0.09" stop-color="#7ec3ec"/><stop offset="0.18" stop-color="#65bae8"/><stop offset="0.3" stop-color="#3aace1"/><stop offset="0.44" stop-color="#0199d8"/><stop offset="0.44" stop-color="#0099d8"/><stop offset="0.66" stop-color="#0772b4"/><stop offset="1" stop-color="#11377e"/></linearGradient><linearGradient id="무제_그라디언트_952" y1="68.97" x2="46.44" y2="68.97" gradientUnits="userSpaceOnUse"><stop offset="0" stop-color="#ed6d36"/><stop offset="1" stop-color="#c50012"/></linearGradient><linearGradient id="무제_그라디언트_792" x1="45.28" y1="569.61" x2="285.72" y2="360.15" gradientTransform="matrix(1, 0, 0, -1, 0, 597.45)" gradientUnits="userSpaceOnUse"><stop offset="0" stop-color="#78ae2a"/><stop offset="0.09" stop-color="#547834"/><stop offset="0.26" stop-color="#346331"/><stop offset="0.43" stop-color="#20562d"/><stop offset="0.54" stop-color="#1a522b"/><stop offset="0.56" stop-color="#1e552d"/><stop offset="0.75" stop-color="#426d33"/><stop offset="0.9" stop-color="#567b34"/><stop offset="1" stop-color="#5e8034"/></linearGradient></defs><polygon class="cls-1" points="31.39 86.39 25.4 98.26 82.97 98.26 76.9 86.39 31.39 86.39"/><path class="cls-2" d="M21.33,86.39l4.16-7.71,1.78-3.31c4.4-8.18,8.93-16.6,13.35-24.65l5.82-11H31.59q-3.51,6.48-6.79,12.57l-.2.37c-4.42,8.22-8.6,16-13.49,24.9-1.27,2.32-2.55,4.81-3.86,7.29s-2.49,4.78-3.73,7L0,98.26H21.75l6.06-11.87Z"/><path class="cls-3" d="M52.42,0,32.9,36.86l14.7.21,4.74-8.61,1.92,3.4c3.52,6.44,9.93,19.84,16.15,32.86,6.08,12.68,11.82,24.67,15.24,31L87,98.27h15.32Z"/><path class="cls-4" d="M124.36,65.43V50.36H113.78v12.2a2.42,2.42,0,0,1-1.18,2.07,4.8,4.8,0,0,1-2.75.8h-6.06V29.92h10V44h10.58V29.92h10V62.56a2.44,2.44,0,0,1-1.18,2.07,4.84,4.84,0,0,1-2.76.8Z"/><path class="cls-4" d="M150.7,65.43V50.7L139.12,29.92h10.43L155,40.78a3.52,3.52,0,0,1,.39,1,7.22,7.22,0,0,0,.35,1c.13-.3.26-.64.4-1a8.79,8.79,0,0,1,.39-1l5.22-10.82h10.44L160.62,50.67V62.56a2.42,2.42,0,0,1-1.18,2.07,4.8,4.8,0,0,1-2.75.8Z"/><path class="cls-4" d="M203.55,62.5Q199.26,66,192.4,66.05T181.28,62.5a11.12,11.12,0,0,1-4.29-9V29.88h10V53.25A6.65,6.65,0,0,0,188.6,58a5.08,5.08,0,0,0,3.84,1.65A5.21,5.21,0,0,0,196.35,58a6.61,6.61,0,0,0,1.6-4.74V29.88h9.94V53.54A11.14,11.14,0,0,1,203.55,62.5Z"/><path class="cls-4" d="M235.61,65.43l-12.49-18.5a7.84,7.84,0,0,1-.35-1,4.21,4.21,0,0,0-.39-1c0,.19.08.57.15,1.13s.1.92.1,1.08V62.57a2.42,2.42,0,0,1-1.19,2.06,4.74,4.74,0,0,1-2.76.8h-6.05V29.92h9L233.92,48a3.7,3.7,0,0,1,.44,1,5.6,5.6,0,0,0,.44,1,7.46,7.46,0,0,0-.1-1.06,8.76,8.76,0,0,1-.09-1v-18h10V62.56a2.45,2.45,0,0,1-1.19,2.07,4.78,4.78,0,0,1-2.75.8Z"/><path class="cls-4" d="M273.89,62.7a15.49,15.49,0,0,1-9.82,3,13.46,13.46,0,0,1-8.59-2.81,9.48,9.48,0,0,1-3.71-7.56h9.44a5.41,5.41,0,0,0,1.07,3,2.64,2.64,0,0,0,2.09,1A2.92,2.92,0,0,0,266.69,58c.69-.9,1-2.43,1-4.59V29.92h10V53.7Q277.74,59.68,273.89,62.7Z"/><path class="cls-4" d="M309.12,62.5Q304.82,66,298,66.05T286.85,62.5a11.09,11.09,0,0,1-4.32-9V29.88h10V53.25A6.65,6.65,0,0,0,294.14,58,5.07,5.07,0,0,0,298,59.64,5.21,5.21,0,0,0,301.88,58a6.48,6.48,0,0,0,1.64-4.74V29.88h9.93V53.54A11.13,11.13,0,0,1,309.12,62.5Z"/><path class="cls-4" d="M341.17,65.43l-12.49-18.5a7.84,7.84,0,0,1-.35-1,4.21,4.21,0,0,0-.39-1c0,.19.08.57.15,1.13a10.76,10.76,0,0,1,.1,1.08V62.57A2.38,2.38,0,0,1,327,64.63a4.71,4.71,0,0,1-2.75.8H318.2V29.92h9L339.47,48a3.43,3.43,0,0,1,.45,1,4.51,4.51,0,0,0,.44,1c0-.36-.05-.71-.1-1.06a8.76,8.76,0,0,1-.1-1v-18h10V62.56A2.42,2.42,0,0,1,349,64.63a4.8,4.8,0,0,1-2.75.8Z"/><path class="cls-5" d="M116.72,88.27h2v3.86h3.72V88.27h2V98.1h-2V93.85h-3.72V98.1h-2Z"/><path class="cls-5" d="M128.26,94.5l-2.95-6.23h2.09l1,2.39c.28.73.55,1.42.85,2.18h.06c.3-.76.59-1.45.87-2.18l1-2.39h2l-3,6.23v3.6h-2Z"/><path class="cls-5" d="M133.93,93.68V88.27h2v5.58c0,2.05.71,2.74,1.86,2.74s1.92-.69,1.92-2.74V88.27h1.88v5.41c0,3.27-1.39,4.61-3.8,4.61S133.93,97,133.93,93.68Z"/><path class="cls-5" d="M143.74,88.27h2l2.86,5.23,1,2.13h.07a34.13,34.13,0,0,1-.25-3.44V88.27h1.86V98.1h-2l-2.84-5.26-1-2.11h-.06c.09,1.06.24,2.3.24,3.42V98.1h-1.86Z"/><path class="cls-5" d="M152.59,96.56l1.36-1a1.65,1.65,0,0,0,1.46,1c.86,0,1.31-.47,1.31-1.82v-6.5h2v6.66c0,1.84-.93,3.36-3,3.36A3.25,3.25,0,0,1,152.59,96.56Z"/><path class="cls-5" d="M160.82,93.68V88.27h2v5.58c0,2.05.7,2.74,1.86,2.74s1.91-.69,1.91-2.74V88.27h1.89v5.41c0,3.27-1.4,4.61-3.8,4.61S160.82,97,160.82,93.68Z"/><path class="cls-5" d="M170.63,88.27h2l2.85,5.23,1,2.13h.06c-.1-1-.25-2.33-.25-3.44V88.27h1.86V98.1h-2l-2.85-5.26-1-2.11h-.07c.09,1.06.24,2.3.24,3.42V98.1h-1.86Z"/><path class="cls-5" d="M187.84,95.58h-3.19L184,98.1h-2l3.15-9.83h2.31l3.17,9.83h-2.06Zm-.42-1.53L187.13,93c-.31-1-.57-2.15-.87-3.21h0c-.25,1.07-.55,2.19-.84,3.21l-.29,1.08Z"/><path class="cls-5" d="M190.92,93.22c0-3.24,2.1-5.14,4.71-5.14a4.15,4.15,0,0,1,3.05,1.26l-1.05,1.25a2.61,2.61,0,0,0-1.93-.82c-1.63,0-2.78,1.28-2.78,3.39s1,3.43,2.91,3.43a2,2,0,0,0,1.24-.38V94.27h-1.74v-1.6h3.49v4.44a4.63,4.63,0,0,1-3.19,1.18C193,98.29,190.92,96.51,190.92,93.22Z"/><path class="cls-5" d="M206.11,98.1l-2-3.72h-1.37V98.1h-2V88.27h3.43c2.06,0,3.7.72,3.7,3A2.83,2.83,0,0,1,206,94.08l2.3,4Zm-3.39-5.27H204c1.26,0,1.95-.54,1.95-1.59s-.69-1.42-1.95-1.42h-1.28Z"/><path class="cls-5" d="M209.63,88.27h2V98.1h-2Z"/><path class="cls-5" d="M213.34,93.22c0-3.24,2.09-5.14,4.57-5.14a4,4,0,0,1,2.89,1.26l-1,1.25a2.52,2.52,0,0,0-1.81-.82c-1.48,0-2.6,1.28-2.6,3.39s1,3.43,2.56,3.43a2.75,2.75,0,0,0,2-1l1,1.22a4,4,0,0,1-3.13,1.45C215.36,98.29,213.34,96.51,213.34,93.22Z"/><path class="cls-5" d="M222.08,93.68V88.27h2v5.58c0,2.05.71,2.74,1.87,2.74s1.91-.69,1.91-2.74V88.27h1.89v5.41c0,3.27-1.4,4.61-3.8,4.61S222.08,97,222.08,93.68Z"/><path class="cls-5" d="M231.89,88.27h2v8.18h4V98.1h-6Z"/><path class="cls-5" d="M239.52,89.9h-2.77V88.27h7.53V89.9h-2.79v8.2h-2Z"/><path class="cls-5" d="M245.63,93.68V88.27h2v5.58c0,2.05.71,2.74,1.86,2.74s1.92-.69,1.92-2.74V88.27h1.88v5.41c0,3.27-1.39,4.61-3.8,4.61S245.63,97,245.63,93.68Z"/><path class="cls-5" d="M260.8,98.1l-2-3.72h-1.37V98.1h-2V88.27h3.42c2.06,0,3.7.72,3.7,3a2.82,2.82,0,0,1-1.87,2.84l2.29,4Zm-3.39-5.27h1.28c1.26,0,1.95-.54,1.95-1.59s-.69-1.42-1.95-1.42h-1.28Z"/><path class="cls-5" d="M268.83,95.58h-3.19L265,98.1h-2l3.15-9.83h2.31l3.16,9.83h-2.06Zm-.42-1.53-.3-1.08c-.3-1-.57-2.15-.86-3.21h-.05c-.26,1.07-.55,2.19-.84,3.21l-.29,1.08Z"/><path class="cls-5" d="M272.56,88.27h2v8.18h4V98.1h-5.95Z"/><path class="cls-5" d="M282.38,93.22c0-3.24,2.09-5.14,4.57-5.14a4,4,0,0,1,2.89,1.26l-1,1.25a2.52,2.52,0,0,0-1.81-.82c-1.49,0-2.6,1.28-2.6,3.39s1,3.43,2.56,3.43a2.73,2.73,0,0,0,2-1l1,1.22a4,4,0,0,1-3.14,1.45C284.4,98.29,282.38,96.51,282.38,93.22Z"/><path class="cls-5" d="M290.41,93.15c0-3.21,1.79-5.07,4.4-5.07s4.4,1.88,4.4,5.07-1.8,5.14-4.4,5.14S290.41,96.33,290.41,93.15Zm6.79,0c0-2.12-.93-3.38-2.39-3.38s-2.39,1.26-2.39,3.38.93,3.44,2.39,3.44S297.2,95.24,297.2,93.15Z"/><path class="cls-5" d="M301,88.27h2.18l1.67,4.6c.22.61.4,1.26.6,1.9h.07c.21-.64.39-1.29.6-1.9l1.63-4.6h2.18V98.1h-1.79V94c0-.93.14-2.3.24-3.23h-.06l-.79,2.31L306,97.21h-1.13l-1.53-4.13-.78-2.31h0c.09.93.25,2.3.25,3.23v4.1H301Z"/><path class="cls-5" d="M312.12,88.27h3.23c2.18,0,3.85.75,3.85,3.08s-1.69,3.26-3.8,3.26h-1.31V98.1h-2Zm3.15,4.78c1.35,0,2-.57,2-1.7s-.72-1.53-2.08-1.53h-1.11v3.23Z"/><path class="cls-5" d="M324.67,95.58h-3.19l-.69,2.52h-2l3.15-9.83h2.31l3.17,9.83h-2.06Zm-.43-1.53L324,93c-.31-1-.57-2.15-.87-3.21H323c-.25,1.07-.54,2.19-.84,3.21l-.29,1.08Z"/><path class="cls-5" d="M328.39,88.27h2l2.85,5.23,1,2.13h.06c-.1-1-.25-2.33-.25-3.44V88.27h1.86V98.1h-2l-2.85-5.26-1-2.11H330c.09,1.06.24,2.3.24,3.42V98.1h-1.86Z"/><path class="cls-5" d="M339.82,94.5l-2.95-6.23H339l1,2.39c.28.73.55,1.42.85,2.18h.06c.3-.76.59-1.45.87-2.18l1-2.39h2l-3,6.23v3.6h-2Z"/></svg>