<svg id="레이어_1" data-name="레이어 1" xmlns="http://www.w3.org/2000/svg" xmlns:xlink="http://www.w3.org/1999/xlink" viewBox="0 0 349.79 98.27"><defs><style>.cls-1{fill:#040000;}.cls-2{fill:url(#무제_그라디언트_862);}.cls-3{fill:url(#무제_그라디언트_952);}.cls-4{fill:url(#무제_그라디언트_792);}</style><linearGradient id="무제_그라디언트_862" x1="21.26" y1="504.75" x2="83.22" y2="504.75" gradientTransform="matrix(1, 0, 0, -1, -0.25, 597.08)" gradientUnits="userSpaceOnUse"><stop offset="0.03" stop-color="#88c6ed"/><stop offset="0.09" stop-color="#7ec3ec"/><stop offset="0.18" stop-color="#65bae8"/><stop offset="0.3" stop-color="#3aace1"/><stop offset="0.44" stop-color="#0199d8"/><stop offset="0.44" stop-color="#0099d8"/><stop offset="0.66" stop-color="#0772b4"/><stop offset="1" stop-color="#11377e"/></linearGradient><linearGradient id="무제_그라디언트_952" x1="0.25" y1="69.34" x2="46.69" y2="69.34" gradientUnits="userSpaceOnUse"><stop offset="0" stop-color="#ed6d36"/><stop offset="1" stop-color="#c50012"/></linearGradient><linearGradient id="무제_그라디언트_792" x1="45.53" y1="569.24" x2="285.97" y2="359.78" gradientTransform="matrix(1, 0, 0, -1, 0, 597.45)" gradientUnits="userSpaceOnUse"><stop offset="0" stop-color="#78ae2a"/><stop offset="0.09" stop-color="#547834"/><stop offset="0.26" stop-color="#346331"/><stop offset="0.43" stop-color="#20562d"/><stop offset="0.54" stop-color="#1a522b"/><stop offset="0.56" stop-color="#1e552d"/><stop offset="0.75" stop-color="#426d33"/><stop offset="0.9" stop-color="#567b34"/><stop offset="1" stop-color="#5e8034"/></linearGradient></defs><path class="cls-1" d="M140.1,90.31V88.46h6.24V86.82H142V81.14h2.36V85h9v1.88h-4.61v1.64H155v1.85Zm13.07,3.92c0,1.92-2.15,3.07-5.7,3.07s-5.69-1.13-5.69-3.07,2.14-3,5.69-3S153.17,92.29,153.17,94.23Zm-2.38,0c0-.87-1.09-1.27-3.32-1.27s-3.32.37-3.32,1.27,1.11,1.28,3.32,1.28S150.79,95.07,150.79,94.23Z" transform="translate(-0.25 -0.37)"/><path class="cls-1" d="M167.87,89.68V86.39h-2.6a4.18,4.18,0,0,1-4.24,3,3.94,3.94,0,1,1,0-7.84,4.15,4.15,0,0,1,4.22,2.94h2.62V80.86h2.36v8.82Zm-4.76-4.24a2.08,2.08,0,1,0-2.19,2H161a1.92,1.92,0,0,0,2.08-1.73Zm7.12,11.63H159.38V90.4h2.33V92h6.21V90.4h2.34Zm-8.55-1.86h6.21V93.74h-6.21Z" transform="translate(-0.25 -0.37)"/><path class="cls-1" d="M183.39,92.18l.18,1.7a57.17,57.17,0,0,1-10.29.67L173,92.64h4.09V91.25c-1.79-.34-2.91-1.45-2.91-3,0-1.85,1.68-3.1,4.08-3.1s4.07,1.25,4.07,3.1c0,1.52-1.11,2.63-2.89,3v1.27C180.75,92.47,182.08,92.36,183.39,92.18Zm-10.08-9.5h3.75V80.91h2.35v1.77h3.75v1.83h-9.85Zm4.94,6.88c1.15,0,1.84-.47,1.84-1.28S179.4,87,178.25,87s-1.84.47-1.84,1.32S177.17,89.56,178.25,89.56Zm6,7.72V80.86h2.35V97.28Z" transform="translate(-0.25 -0.37)"/><path class="cls-1" d="M199.16,91.76l-1.43,1.85a7.39,7.39,0,0,1-3.54-4.43,7.83,7.83,0,0,1-3.83,4.73L189,92c2.77-1.28,4-4.47,4-7.49V82.12h2.37v2.39C195.36,87.47,196.52,90.47,199.16,91.76Zm3,5.52h-2.35V80.86h2.35v6.31h2.39v2h-2.39Z" transform="translate(-0.25 -0.37)"/><path class="cls-1" d="M217.1,89.86V86.49h-2.92v2.89h-7.76V81.72h2.34v2.07h3.12V81.72h2.3v2.91h2.93V80.89h2.35v9Zm2.36,7.21H208.6V90.54h2.29V92h6.22V90.54h2.34Zm-10.7-9.58h3.11V85.56h-3.11Zm2.13,7.73h6.22v-1.4h-6.22Z" transform="translate(-0.25 -0.37)"/><path class="cls-1" d="M226.85,90.24a4.18,4.18,0,1,1,4.47-4.16A4.23,4.23,0,0,1,226.85,90.24Zm0-2a2.14,2.14,0,0,0,0-4.27h0a2.14,2.14,0,0,0,0,4.27Zm-2,8.79V91.5h2.35v3.62h9V97Zm8.56-16.13h2.37V92.66h-2.36Z" transform="translate(-0.25 -0.37)"/><path class="cls-1" d="M243.34,89.4A16.9,16.9,0,0,1,246,80.18l1.64.69a17.83,17.83,0,0,0,0,17.07l-1.64.7A17,17,0,0,1,243.34,89.4Z" transform="translate(-0.25 -0.37)"/><path class="cls-1" d="M257.89,97.32h-2.32v-5.5h-6.19V90h14.81v1.87h-6.3Zm-2.51-13.75h-4.73V81.7h12.19v1.87h-4.66c.23,1.59,1.94,3.15,5.29,3.58L262.64,89c-2.87-.41-4.87-1.59-5.87-3.3-1,1.71-3,2.89-5.87,3.3L250,87.15C253.41,86.71,255.15,85.16,255.38,83.57Z" transform="translate(-0.25 -0.37)"/><path class="cls-1" d="M268.08,89.4a17.09,17.09,0,0,0-2.18-8.53l1.62-.69a16.73,16.73,0,0,1,2.68,9.22,16.93,16.93,0,0,1-2.68,9.24l-1.62-.7A16.9,16.9,0,0,0,268.08,89.4Z" transform="translate(-0.25 -0.37)"/><path class="cls-1" d="M272.54,82.58H276V80.8h2.35v1.78h3.19v1.84h-9Zm4.61,8.89c-2.24,0-3.83-1.34-3.83-3.25s1.6-3.19,3.83-3.19S281,86.31,281,88.22,279.39,91.47,277.15,91.47ZM275.36,97V92.36h2.35v2.76h8.85V97Zm1.78-7.35a1.43,1.43,0,0,0,1.63-1.43c0-.93-.69-1.4-1.63-1.4s-1.63.49-1.63,1.4.65,1.43,1.64,1.43Zm4.57-1.19h2.14V86.82h-2.11V84.94h2.14V80.86h2.33V93.38h-2.36v-3h-2.11Z" transform="translate(-0.25 -0.37)"/><path class="cls-1" d="M297.7,90.9v2.78h-2.36V90.9h-6.47V89h14.9V90.9Zm-3.05-7.47h-4.41V81.56H302.4v1.87H298c.29,1.32,1.87,2.65,5.11,3l-.86,1.84c-3.15-.34-5-1.57-5.92-3.28-.84,1.69-2.84,2.94-5.92,3.28l-.84-1.84c3.18-.34,4.82-1.71,5.11-3ZM302.1,97H290.61V92.27H293v2.85h9.14Z" transform="translate(-0.25 -0.37)"/><path class="cls-1" d="M115.2,64.59V48.92h-11V61.61A2.52,2.52,0,0,1,103,63.76a4.88,4.88,0,0,1-2.86.83H93.8V27.67h10.4V42.29h11V27.67h10.39V61.61a2.52,2.52,0,0,1-1.23,2.15,4.89,4.89,0,0,1-2.87.83Z" transform="translate(-0.25 -0.37)"/><path class="cls-1" d="M142.59,64.59V49.27l-12-21.6H141.4L147.06,39a4,4,0,0,1,.41,1,6.62,6.62,0,0,0,.36,1.06c.14-.31.27-.67.41-1.08a7.88,7.88,0,0,1,.41-1l5.42-11.25h10.86l-12,21.57V61.61a2.48,2.48,0,0,1-1.22,2.15,4.89,4.89,0,0,1-2.87.83Z" transform="translate(-0.25 -0.37)"/><path class="cls-1" d="M197.56,61.55q-4.47,3.67-11.59,3.69T174.4,61.55a11.55,11.55,0,0,1-4.46-9.32V27.62h10.44V51.93A6.92,6.92,0,0,0,182,56.86a5.3,5.3,0,0,0,4,1.72,5.44,5.44,0,0,0,4.07-1.72,6.84,6.84,0,0,0,1.66-4.93V27.62h10.34V52.23A11.56,11.56,0,0,1,197.56,61.55Z" transform="translate(-0.25 -0.37)"/><path class="cls-1" d="M230.9,64.59l-13-19.23c-.14-.33-.25-.66-.36-1a4.35,4.35,0,0,0-.4-1c0,.19.08.59.15,1.17s.1,1,.1,1.13v16a2.51,2.51,0,0,1-1.23,2.15,5,5,0,0,1-2.87.83H207V27.67h9.37l12.77,18.8a4.12,4.12,0,0,1,.46,1,6.1,6.1,0,0,0,.45,1.09,8.32,8.32,0,0,0-.1-1.11,9.28,9.28,0,0,1-.1-1.06V27.67h10.39V61.61A2.49,2.49,0,0,1,239,63.76a4.89,4.89,0,0,1-2.87.83Z" transform="translate(-0.25 -0.37)"/><path class="cls-1" d="M270.72,61.76a16.18,16.18,0,0,1-10.21,3.13A14.06,14.06,0,0,1,251.57,62a9.88,9.88,0,0,1-3.86-7.86h9.82a5.65,5.65,0,0,0,1.11,3.11,2.79,2.79,0,0,0,2.17,1.05,3,3,0,0,0,2.42-1.39c.72-.94,1.08-2.53,1.08-4.78V27.67h10.41V52.4Q274.72,58.63,270.72,61.76Z" transform="translate(-0.25 -0.37)"/><path class="cls-1" d="M307.36,61.55q-4.47,3.67-11.59,3.69T284.2,61.55a11.55,11.55,0,0,1-4.5-9.32V27.62h10.44V51.93a6.88,6.88,0,0,0,1.64,4.93,5.29,5.29,0,0,0,4,1.72,5.43,5.43,0,0,0,4.06-1.72,6.77,6.77,0,0,0,1.7-4.93V27.62h10.33V52.23A11.58,11.58,0,0,1,307.36,61.55Z" transform="translate(-0.25 -0.37)"/><path class="cls-1" d="M340.7,64.59l-13-19.23a8.49,8.49,0,0,1-.36-1,4,4,0,0,0-.41-1c0,.19.09.59.16,1.17s.1,1,.1,1.13v16A2.51,2.51,0,0,1,326,63.77a5,5,0,0,1-2.87.83H316.8V27.67h9.36l12.77,18.8a4.12,4.12,0,0,1,.46,1,4.76,4.76,0,0,0,.46,1.09c0-.37-.05-.74-.1-1.11a9.28,9.28,0,0,1-.11-1.06V27.67H350V61.61a2.51,2.51,0,0,1-1.22,2.15,4.89,4.89,0,0,1-2.87.83Z" transform="translate(-0.25 -0.37)"/><polygon class="cls-2" points="31.39 86.39 25.4 98.26 82.97 98.26 76.9 86.39 31.39 86.39"/><path class="cls-3" d="M21.58,86.76l4.16-7.71,1.78-3.32c4.4-8.17,8.93-16.59,13.34-24.64l5.83-11H31.84q-3.51,6.48-6.79,12.57l-.2.37c-4.42,8.22-8.6,16-13.49,24.9-1.28,2.32-2.55,4.81-3.86,7.29S5,90,3.77,92.2L.25,98.63H22l6.06-11.87Z" transform="translate(-0.25 -0.37)"/><path class="cls-4" d="M52.67.37,33.15,37.23l14.7.21,4.74-8.61,1.91,3.4C58,38.67,64.44,52.07,70.66,65.09c6.08,12.68,11.81,24.67,15.24,31l1.38,2.56h15.31Z" transform="translate(-0.25 -0.37)"/></svg>