<svg width="13" height="20" viewBox="0 0 13 20" fill="none" xmlns="http://www.w3.org/2000/svg">
<path d="M5.31078 7.57461L0.807482 9.99961C0.560242 10.1329 0.34373 10.1079 0.157947 9.92461C-0.0271287 9.74128 -0.049026 9.53294 0.0922542 9.29961L5.46972 1.32461C5.68163 1.00794 5.98185 0.849609 6.37037 0.849609C6.75889 0.849609 7.05911 1.00794 7.27103 1.32461L12.6485 9.29961C12.7898 9.53294 12.7679 9.74128 12.5828 9.92461C12.397 10.1079 12.1805 10.1329 11.9333 9.99961L7.42997 7.57461L7.42997 18.9996C7.42997 19.2829 7.3286 19.5203 7.12587 19.7116C6.92242 19.9036 6.67059 19.9996 6.37037 19.9996C6.07015 19.9996 5.81868 19.9036 5.61594 19.7116C5.4125 19.5203 5.31077 19.2829 5.31077 18.9996L5.31078 7.57461Z" fill="white"/>
</svg>
