<svg width="50" height="50" viewBox="0 0 50 50" fill="none" xmlns="http://www.w3.org/2000/svg">
<circle cx="25" cy="25" r="25" fill="#87C313"/>
<path d="M23 19V21H18V32H29V27H31V33C31 33.2652 30.8946 33.5196 30.7071 33.7071C30.5196 33.8946 30.2652 34 30 34H17C16.7348 34 16.4804 33.8946 16.2929 33.7071C16.1054 33.5196 16 33.2652 16 33V20C16 19.7348 16.1054 19.4804 16.2929 19.2929C16.4804 19.1054 16.7348 19 17 19H23ZM34 16V24H32V19.413L24.207 27.207L22.793 25.793L30.585 18H26V16H34Z" fill="white"/>
</svg>
