<svg width="25" height="25" viewBox="0 0 25 25" fill="none" xmlns="http://www.w3.org/2000/svg">
<circle cx="12.5" cy="12.5" r="12.5" fill="#87C313"/>
<path d="M11.5 9.5V10.5H9V16H14.5V13.5H15.5V16.5C15.5 16.6326 15.4473 16.7598 15.3536 16.8536C15.2598 16.9473 15.1326 17 15 17H8.5C8.36739 17 8.24021 16.9473 8.14645 16.8536C8.05268 16.7598 8 16.6326 8 16.5V10C8 9.86739 8.05268 9.74021 8.14645 9.64645C8.24021 9.55268 8.36739 9.5 8.5 9.5H11.5ZM17 8V12H16V9.7065L12.1035 13.6035L11.3965 12.8965L15.2925 9H13V8H17Z" fill="white"/>
</svg>
