<svg width="51" height="50" viewBox="0 0 51 50" fill="none" xmlns="http://www.w3.org/2000/svg">
<circle cx="25.5" cy="25" r="25" fill="#87C313"/>
<path d="M35.1954 15.2912C35.0604 15.1569 34.8899 15.0639 34.7039 15.0232C34.5179 14.9824 34.3241 14.9956 34.1454 15.0612L12.1454 23.0612C11.9556 23.1332 11.7923 23.2612 11.677 23.4282C11.5617 23.5952 11.5 23.7933 11.5 23.9962C11.5 24.1992 11.5617 24.3973 11.677 24.5643C11.7923 24.7313 11.9556 24.8593 12.1454 24.9312L21.7454 28.7712L25.5854 38.3712C25.6575 38.5526 25.7812 38.7089 25.9411 38.8209C26.101 38.9328 26.2902 38.9955 26.4854 39.0012C26.6874 38.9971 26.8835 38.9318 27.0478 38.814C27.212 38.6962 27.3367 38.5313 27.4054 38.3412L35.4054 16.3412C35.4735 16.1643 35.4899 15.9717 35.4527 15.7858C35.4156 15.5999 35.3263 15.4283 35.1954 15.2912ZM26.4854 35.2012L23.6954 28.2012L28.4854 23.4112L27.0754 22.0012L22.2454 26.8312L15.2854 24.0012L32.8154 17.6712L26.4854 35.2012Z" fill="white"/>
</svg>
