<svg width="27" height="38" viewBox="0 0 27 38" fill="none" xmlns="http://www.w3.org/2000/svg">
<path d="M13.666 0C6.47887 0 0.666016 5.947 0.666016 13.3C0.666016 23.275 13.666 38 13.666 38C13.666 38 26.666 23.275 26.666 13.3C26.666 5.947 20.8532 0 13.666 0ZM13.666 18.05C12.4347 18.05 11.2537 17.5496 10.383 16.6588C9.51231 15.768 9.02316 14.5598 9.02316 13.3C9.02316 12.0402 9.51231 10.832 10.383 9.94124C11.2537 9.05044 12.4347 8.55 13.666 8.55C14.8974 8.55 16.0783 9.05044 16.949 9.94124C17.8197 10.832 18.3089 12.0402 18.3089 13.3C18.3089 14.5598 17.8197 15.768 16.949 16.6588C16.0783 17.5496 14.8974 18.05 13.666 18.05Z" fill="#87C313"/>
</svg>
